<?xml version="1.0" encoding="UTF-8"?>
<svg id="_レイヤー_1" data-name="レイヤー 1" xmlns="http://www.w3.org/2000/svg" xmlns:xlink="http://www.w3.org/1999/xlink" viewBox="0 0 489.48 425.63">
  <defs>
    <style>
      .cls-1 {
        fill: #fff;
      }

      .cls-2 {
        fill: url(#_名称未設定グラデーション_155);
      }
    </style>
    <linearGradient id="_名称未設定グラデーション_155" data-name="名称未設定グラデーション 155" x1="439.46" y1="49.75" x2="96.84" y2="392.36" gradientUnits="userSpaceOnUse">
      <stop offset="0" stop-color="#8cc63f"/>
      <stop offset="1" stop-color="#006837"/>
    </linearGradient>
  </defs>
  <path class="cls-1" d="M77.78,425.63c-8.28,0-15-6.72-15-15v-42.25c0-8.28,6.72-15,15-15h10.69c-.87-.81-1.74-1.63-2.6-2.45-5.18-4.94-10.23-10.19-15.02-15.6-2.74-3.09-5.44-6.29-8.04-9.52-2.6-3.23-5.17-6.58-7.62-9.94-1.23-1.69-2.46-3.41-3.65-5.12-2.39-3.43-4.73-6.97-6.97-10.53-3.37-5.35-6.6-10.9-9.61-16.49-2.01-3.74-3.97-7.58-5.82-11.43-3.72-7.73-7.14-15.76-10.17-23.84-1.52-4.07-2.98-8.23-4.32-12.38-2.71-8.35-5.08-16.96-7.04-25.58-.99-4.34-1.89-8.77-2.69-13.17-.8-4.42-1.51-8.93-2.12-13.4-1.84-13.6-2.77-27.53-2.77-41.39,0-8.28,6.72-15,15-15h259.19L397.35,4.39c2.81-2.81,6.63-4.39,10.61-4.39s7.79,1.58,10.61,4.39l29.87,29.87c1.19,1.19,2.13,2.52,2.84,3.95,1.45.72,2.78,1.67,3.94,2.83l29.88,29.87c2.81,2.81,4.39,6.63,4.39,10.61s-1.58,7.79-4.39,10.61l-35.41,35.41h23.34c8.28,0,15,6.72,15,15,0,13.86-.93,27.79-2.77,41.39-.6,4.47-1.32,8.98-2.12,13.4-.8,4.39-1.7,8.82-2.69,13.17-1.97,8.63-4.34,17.23-7.04,25.58-2.01,6.2-4.26,12.41-6.67,18.45-2.4,6-5.03,11.98-7.82,17.77-1.85,3.85-3.81,7.7-5.82,11.43-3.02,5.6-6.25,11.15-9.61,16.49-2.23,3.54-4.57,7.08-6.97,10.53-1.2,1.72-2.42,3.44-3.65,5.12-2.46,3.36-5.02,6.7-7.62,9.94-2.6,3.23-5.3,6.43-8.04,9.52-2.74,3.09-5.58,6.15-8.44,9.08-2.87,2.94-5.84,5.85-8.83,8.63-.12.11-.24.22-.36.33h10.69c8.28,0,15,6.72,15,15v42.25c0,8.28-6.72,15-15,15H77.78ZM79.32,199.8c21.4,84.47,88.36,144.07,164.68,144.07s143.28-59.6,164.68-144.07H79.32Z"/>
  <path class="cls-2" d="M474.48,81.53l-14.94-14.94-14.94-14.94-90.89,90.89h-13.56l97.68-97.68-14.94-14.94-14.94-14.94-127.55,127.55H15c0,13.39.9,26.54,2.64,39.38.58,4.28,1.25,8.53,2.01,12.73.76,4.21,1.62,8.38,2.56,12.51,1.88,8.26,4.12,16.36,6.69,24.28,1.28,3.96,2.65,7.88,4.1,11.74,2.9,7.73,6.12,15.28,9.64,22.6,1.76,3.66,3.6,7.27,5.51,10.83,2.87,5.33,5.9,10.54,9.1,15.6,2.13,3.38,4.33,6.7,6.59,9.95,1.13,1.63,2.28,3.24,3.45,4.84,2.33,3.19,4.73,6.32,7.2,9.38s4.99,6.06,7.58,8.98c4.53,5.12,9.25,10.02,14.15,14.7,4.9,4.68,9.97,9.12,15.21,13.33,2.99,2.4,6.04,4.73,9.14,6.97s6.25,4.4,9.44,6.48c.8.52,1.61,1.01,2.41,1.52h-54.65v42.25h332.45v-42.25h-54.66c.81-.51,1.63-1,2.43-1.52,3.2-2.08,6.35-4.24,9.44-6.48,7.74-5.61,15.17-11.72,22.24-18.31,2.83-2.63,5.6-5.34,8.31-8.13,2.71-2.78,5.36-5.64,7.95-8.56,2.59-2.92,5.12-5.92,7.58-8.98,2.46-3.06,4.86-6.19,7.2-9.38,1.17-1.6,2.32-3.21,3.45-4.84,2.27-3.26,4.47-6.58,6.59-9.95,3.19-5.07,6.23-10.27,9.1-15.6,1.91-3.55,3.75-7.16,5.51-10.83,2.64-5.5,5.12-11.11,7.41-16.84,2.29-5.73,4.41-11.57,6.33-17.51,2.57-7.92,4.8-16.02,6.69-24.28.94-4.13,1.79-8.3,2.56-12.51.76-4.21,1.43-8.45,2.01-12.73,1.74-12.84,2.64-25.99,2.64-39.38h-59.55l61.02-61.02ZM427.19,184.8c-17.01,99.13-92.68,174.07-183.18,174.07S77.83,283.93,60.82,184.8h366.37Z"/>
</svg>